<?xml version="1.0" encoding="UTF-8"?><svg id="Layer_1" xmlns="http://www.w3.org/2000/svg" viewBox="0 0 1080 1080"><defs><style>.cls-1{fill:#fff;}</style></defs><path class="cls-1" d="M554.63,116.97l-53.15,14.36-32.66-43.67-6.09,55.71-48.39,13.41,47.19,20.86-3.18,64.98,41.26-49.96,55.04,16.44-31.45-47.11,31.44-45.02ZM671.94,129.53v40.84c-6.93,14.56-37.24-5.22-51.83-6.81-24.63-2.69-38.87,3.46-61.21,11,22.87,16.29,50.82,4.05,76.03,9.78l9.05,16.58,32.13-6.45-12.56,12.53,7.4,6.45,15.65-2.24v31.41l10.4-26.27c5.67,3.56,14.6.35,17.65,1.19,3.22.88,53.53,34.07,55.9,36.42,6,5.95,10.47,34.46,20.75,43.1l-81.64-2.11c18.14,8.62,46.9,3.68,63.67,10.31,1.99.79-1.18,9.72,9.62,6.49l-6.24,10.36,22.98.13-4.14,5.21,8.32,3.17.12,11.39,28.86,3.62c2.17,12.48,24.63,31.65,27.1,40.95,3.68,13.86-.32,39.54,4.66,55l-62.8-30.37c9.5,14,31.23,17.6,42.12,29.27,3.06,3.29-3.24,8.96,8.14,14.7l-10.47-1.01,2.07,7.33,25.13,8.38-12.54,1.05,10.41,7.32-10.39-1.05c-3.02,14.51,12.1,17.06,20.78,24.22,15.71,33.01-17.32,53.85,2.2,88.87l-35.56-24.1,20.91,23.08-6.24,6.21,10.43,7.34-10.42,1.03,12.51,13.65-10.43,1.02,10.43,9.45-10.45,1.04,16.63,22.7-28.45,99.98-8.1-.1-21.94-52.39,12.52,48.16c-15.65-3.93,1.44,8.24-14.59,9.55l2.03,13.48-8.35-4.16,4.15,16.74-8.32-8.37c3.34,17.09-6.46,40.4-19.47,51.76-5.16,4.51-19.09,7.23-24.37,12.28-2.46,2.35-43.23,52.91-48.33,46.93l24.08-81.65c-13.05,10.63-16.4,37.68-23.94,48.84-1.01,1.49-21.28,21.27-25.31,25.48-1.69,1.76-8.2-.04-11.52,3.14-4.85,4.65-9.56,21.05-15.8,26.09-20.54,16.58-47.64,11.27-66.93,21.03-2.4,1.21-15.82,10.22-14.61,12.55,23.14,3.51,50.25.56,68.05-17.7l-16.78,56.47,36.69-69.08,1,20.91,18.89-33.48-5.28,27.19,19.49-7.95,37.06,10.03-32.62-20.84c-1.32-13.35,15.61-13.9,24.08-20.15,4.75-3.5,6.25-13.15,13.25-16.07,6.69-2.79,14.14-.14,18.9-2.05,29.08-11.66,18.49-30.02,41.38-47.65l22.95,77.44-4.14-85.85,12.54,6.26-4.22-13.56,8.39,1.01-4.16-16.73,11.54,12.52c9.18-15.48,30.6,4.18,44.99,6.28l-44.11-30.39c-1.32-15.58,16.7-27.43,20.4-38.3,4.14-12.16-1.06-18.27,1.07-26.08,1.75-6.42,20.77-20.86,15.37-37.08l9.4-5.47,37.66,36.79-35.58-58.61,12.52-1.02-12.54-10.51,8.34-4.14-12.54-11.53,20.94,4.14-4.18-8.32,31.41-10.48-44.15-.87c4.11-32.9-15.74-62.47.35-93.22l35.42,11.35-43.96-29.34,18.82,3.14c1.38-9.93-29.76-14.43-10.46-16.77l-6.26-8.34,16.73.02-18.83-10.49,14.62,4.17-6.25-11.48,20.93-19.9-31.39,12.54c-3.24-33.95-10.09-70.21-27.24-99.49l41.86-3.1-60.7-8.44,14.59-7.3-20.88-3.16,4.18-8.35-8.37-1.05,14.63-7.33-20.92-.03,14.65-6.3-12.51-7.3,29.24-38.74-44.07,41.08-13.54-13.99c10.6-26.27-8.84-25.88-19.77-36.61-14.51-14.25-21.54-25.87-44.05-33.44l96.33-42.87-92.31,26.4c-5.26-7.18-31.82-7.48-24.95-15.94l-31.32-6.42-8.48-45.95ZM305.44,285.55v49.21l30.83-39.51,57.13,18.55-35.54-51.28,29.23-47.12-51.34,16.06-32.38-41.19,1.04,52.37-53.41,19.87,54.44,23.05ZM267.72,370.37l-47.14,27.17-36.59-31.34,7.98,49.88-43.57,23.45,52.37,11.44,12.56,53.42,21.21-47.89,49.95,5.99-36.73-37.47,19.96-54.65ZM286.58,594.47l-59.26,12.23-32.84-47.83-5.15,58.74-49.33,12.48,47.26,22.99-3.26,56.56,39.44-40.87,56.87,22-31.5-51.17,37.76-45.13ZM351.52,839.48h56.54l-43.73-34.96,14.39-55.09-46.92,29.35-51.46-37.72,18.62,61.55-47.95,34.77,58.69,3.09,18.81,61.84,23.01-62.83ZM525.65,899.92l-12.9-52.04-23.3,47.85-52.06-3.87,35.53,36.57-25.04,57.64,57.46-27.31,40.94,33.59-11.6-54.43,53.49-33.49-62.52-4.51Z"/><path class="cls-1" d="M671.94,129.53l8.48,45.95,31.32,6.42c-6.87,8.46,19.69,8.76,24.95,15.94l92.31-26.4-96.33,42.87c22.51,7.57,29.53,19.19,44.05,33.44,10.93,10.73,30.36,10.34,19.77,36.61l13.54,13.99,44.07-41.08-29.24,38.74,12.51,7.3-14.65,6.3,20.92.03-14.63,7.33,8.37,1.05-4.18,8.35,20.88,3.16-14.59,7.3,60.7,8.44-41.86,3.1c17.15,29.28,23.99,65.54,27.24,99.49l31.39-12.54-20.93,19.9,6.25,11.48-14.62-4.17,18.83,10.49-16.73-.02,6.26,8.34c-19.3,2.33,11.84,6.84,10.46,16.77l-18.82-3.14,43.96,29.34-35.42-11.35c-16.09,30.75,3.77,60.32-.35,93.22l44.15.87-31.41,10.48,4.18,8.32-20.94-4.14,12.54,11.53-8.34,4.14,12.54,10.51-12.52,1.02,35.58,58.61-37.66-36.79-9.4,5.47c5.4,16.22-13.63,30.66-15.37,37.08-2.12,7.81,3.08,13.92-1.07,26.08-3.71,10.87-21.73,22.72-20.4,38.3l44.11,30.39c-14.38-2.11-35.81-21.76-44.99-6.28l-11.54-12.52,4.16,16.73-8.39-1.01,4.22,13.56-12.54-6.26,4.14,85.85-22.95-77.44c-22.89,17.62-12.3,35.99-41.38,47.65-4.75,1.91-12.2-.74-18.9,2.05-7,2.92-8.5,12.56-13.25,16.07-8.46,6.24-25.4,6.8-24.08,20.15l32.62,20.84-37.06-10.03-19.49,7.95,5.28-27.19-18.89,33.48-1-20.91-36.69,69.08,16.78-56.47c-17.81,18.26-44.91,21.21-68.05,17.7-1.2-2.33,12.22-11.33,14.61-12.55,19.29-9.77,46.39-4.45,66.93-21.03,6.24-5.04,10.95-21.44,15.8-26.09,3.32-3.18,9.83-1.38,11.52-3.14,4.03-4.21,24.3-23.99,25.31-25.48,7.54-11.15,10.89-38.21,23.94-48.84l-24.08,81.65c5.1,5.98,45.87-44.58,48.33-46.93,5.28-5.05,19.21-7.78,24.37-12.28,13.01-11.36,22.81-34.67,19.47-51.76l8.32,8.37-4.15-16.74,8.35,4.16-2.03-13.48c16.03-1.31-1.06-13.48,14.59-9.55l-12.52-48.16,21.94,52.39,8.1.1,28.45-99.98-16.63-22.7,10.45-1.04-10.43-9.45,10.43-1.02-12.51-13.65,10.42-1.03-10.43-7.34,6.24-6.21-20.91-23.08,35.56,24.1c-19.52-35.02,13.5-55.86-2.2-88.87-8.68-7.15-23.8-9.71-20.78-24.22l10.39,1.05-10.41-7.32,12.54-1.05-25.13-8.38-2.07-7.33,10.47,1.01c-11.38-5.74-5.07-11.41-8.14-14.7-10.89-11.67-32.62-15.27-42.12-29.27l62.8,30.37c-4.98-15.46-.98-41.14-4.66-55-2.47-9.3-24.93-28.47-27.1-40.95l-28.86-3.62-.12-11.39-8.32-3.17,4.14-5.21-22.98-.13,6.24-10.36c-10.8,3.23-7.63-5.7-9.62-6.49-16.77-6.63-45.53-1.69-63.67-10.31l81.64,2.11c-10.28-8.65-14.74-37.15-20.75-43.1-2.37-2.35-52.69-35.54-55.9-36.42-3.05-.83-11.98,2.38-17.65-1.19l-10.4,26.27v-31.41l-15.65,2.24-7.4-6.45,12.56-12.53-32.13,6.45-9.05-16.58c-25.21-5.73-53.16,6.51-76.03-9.78,22.34-7.54,36.58-13.69,61.21-11,14.59,1.59,44.9,21.37,51.83,6.81v-40.84Z"/><polygon class="cls-1" points="351.52 839.48 328.51 902.31 309.7 840.47 251.01 837.37 298.96 802.61 280.34 741.05 331.8 778.78 378.72 749.43 364.33 804.53 408.06 839.48 351.52 839.48"/><polygon class="cls-1" points="525.65 899.92 588.17 904.43 534.67 937.92 546.27 992.35 505.33 958.76 447.87 986.07 472.91 928.43 437.38 891.86 489.45 895.73 512.74 847.88 525.65 899.92"/><polygon class="cls-1" points="286.58 594.47 248.82 639.6 280.31 690.77 223.45 668.77 184 709.64 187.26 653.08 140 630.08 189.33 617.6 194.47 558.87 227.32 606.69 286.58 594.47"/><polygon class="cls-1" points="554.63 116.97 523.2 161.99 554.65 209.1 499.61 192.66 458.35 242.62 461.53 177.64 414.34 156.77 462.73 143.36 468.82 87.65 501.48 131.33 554.63 116.97"/><polygon class="cls-1" points="305.44 285.55 251.01 262.51 304.41 242.64 303.38 190.27 335.76 231.46 387.09 215.4 357.87 262.52 393.4 313.8 336.27 295.26 305.44 334.77 305.44 285.55"/><polygon class="cls-1" points="267.72 370.37 247.76 425.03 284.49 462.49 234.54 456.5 213.33 504.39 200.77 450.97 148.4 439.53 191.96 416.08 183.99 366.2 220.58 397.54 267.72 370.37"/></svg>