<?xml version="1.0" encoding="UTF-8"?>
<svg id="Layer_1" xmlns="http://www.w3.org/2000/svg" baseProfile="tiny" version="1.2" viewBox="0 0 1280 1271">
  <!-- Generator: Adobe Illustrator 29.5.1, SVG Export Plug-In . SVG Version: 2.1.0 Build 141)  -->
  <g>
    <path d="M639,2.2c0,.7-4.5,14.8-9.9,31.3l-9.8,30h-33.1c-25.7,0-32.9.3-31.9,1.2.7.7,12.5,9.3,26.2,19.3,13.8,9.9,25.1,18.5,25.3,19s-3.8,13.6-8.8,29.2c-11.7,36-11.1,34-9.7,33.1.7-.3,12.6-8.9,26.4-19,13.9-10.1,25.7-18.3,26.3-18.3s12.4,8.2,26.3,18.3c13.8,10.1,25.7,18.7,26.4,19,1.4.9,2,2.9-9.7-33.1-5-15.6-9-28.7-8.8-29.2s11.6-9.1,25.3-19.1c13.8-9.9,25.5-18.6,26.2-19.2.9-.9-6.9-1.2-31.9-1.2h-33.1l-9.8-30c-5.4-16.5-9.9-30.6-9.9-31.3,0-.6-.4-1.2-1-1.2-.5,0-1,.6-1,1.2Z" fill="#fff"/>
    <path d="M359.7,86.7c-2.1,6.5-6.6,20.6-10.1,31.3l-6.4,19.5-33,.5-33,.5,26.3,19c14.5,10.4,26.4,19.3,26.5,19.8,0,.4-4.5,14.5-10,31.4s-9.8,30.8-9.7,30.9c.1.2,12.2-8.4,26.7-19,14.6-10.6,27-19,27.5-18.6,12.5,9.1,52.6,38,52.8,38s-.4-2.4-1.4-5.3c-2.3-6.8-13.3-40.6-16.3-50.2l-2.4-7.5,26.5-19.3,26.5-19.2-32.8-.5-32.9-.5-1.7-5c-.9-2.8-5.4-16.5-9.9-30.5s-8.5-25.8-8.8-26.3c-.4-.4-2.4,4.6-4.4,11Z" fill="#fff"/>
    <path d="M915.8,75.5c-.3.6-4.2,12.5-8.7,26.5s-9,27.7-9.9,30.5l-1.7,5-33.3.3-33.3.2,22.3,16.2c12.3,8.9,24.4,17.6,26.9,19.5l4.7,3.3-6.3,19.3c-11,33.4-14.3,43.7-13.9,43.7.2,0,12.3-8.7,26.9-19.4l26.7-19.4,26.6,19.4c14.6,10.6,26.7,19.2,26.9,19.1.1-.2-4.2-14.1-9.7-31s-10-31-10-31.4c.1-.5,12-9.4,26.5-19.8l26.3-19-33-.5-33-.5-6.8-21c-3.8-11.6-8.4-25.7-10.2-31.5-1.9-5.7-3.7-10-4-9.5Z" fill="#fff"/>
    <path d="M152.5,303.5c-4.8,14.9-9.4,29.1-10.2,31.7l-1.4,4.8-33,.2-33,.3,26.5,19.3,26.5,19.2-1.3,4.3c-.7,2.3-5.2,16.3-10.1,31-4.8,14.8-8.5,27-8.4,27.2.2.2,12.1-8.2,26.4-18.6s26.5-18.9,27-18.9c.6,0,12.7,8.6,27,18.9,14.3,10.4,26.1,18.8,26.3,18.6.3-.2-17.5-56.1-19.5-61.2-.2-.6,11.6-9.8,26.2-20.5l26.7-19.3-33-.3-33-.2-9.7-29.8c-5.2-16.3-9.9-30.6-10.4-31.7-.6-1.4-3.1,5.2-9.6,25Z" fill="#fff"/>
    <path d="M1108,308.2l-10.4,31.8-32.9.2-32.9.3,26.2,18.9c14.3,10.4,26.2,19.2,26.4,19.5s-1.5,6-3.6,12.6c-13.9,42.5-16.4,50.5-16.1,50.5.2,0,11.9-8.4,26-18.6s26.2-18.8,26.9-19.1,13.1,8.1,27.6,18.5c14.4,10.5,26.4,18.9,26.6,18.7.3-.2-3.3-11.3-17.3-54.4-1.4-4-2.2-7.7-2-8.1.3-.4,12.2-9.3,26.5-19.6l26.1-18.9-33-.3-33-.2-10.4-31.8-10.4-31.7-10.3,31.7Z" fill="#fff"/>
    <path d="M79.3,577.5c-4.5,13.7-9.1,28-10.3,31.7l-2.2,6.8-32.9.2-33,.3,26.6,19.4c18,13.1,26.4,19.8,26.1,20.8-2.2,5.5-19.7,60.5-19.4,60.8.1.2,12-8.2,26.3-18.5,14.3-10.4,26.5-18.9,27-19,.6,0,12.7,8.5,27,18.9,14.3,10.5,26.1,18.8,26.3,18.6.3-.2-17.3-55.3-19.5-61.1-.2-.7,11.6-9.9,26.2-20.5l26.7-19.4-33-.3-33.1-.2-10.3-31.8-10.4-31.7-8.1,25Z" fill="#fff"/>
    <path d="M1182,584.2l-10.4,31.8-32.9.2-32.9.3,26.5,19.3,26.5,19.3-1.8,5.7c-14.1,43.2-18,55.6-17.8,56.2.2.5,12-7.7,26.3-18.1s26.5-18.9,27-18.9c.6.1,12.7,8.6,27,19s26.1,18.8,26.3,18.6c.1-.2-.4-2.3-1.2-4.7-11.5-35-18.6-56.9-18.6-57.2s12-9.2,26.6-19.8l26.6-19.4-33.1-.3-33-.2-10.4-31.8-10.4-31.7-10.3,31.7Z" fill="#fff"/>
    <path d="M153.3,853.6c-4.5,13.7-9.1,27.9-10.3,31.6l-2.2,6.8-33,.2-33,.3,26.7,19.4c16,11.6,26.4,19.9,26.1,20.6-2.3,6-19.7,60.8-19.4,61.1.3.2,12.2-8.2,26.6-18.6,14.4-10.5,26.4-19,26.7-19s11.9,8.2,25.8,18.3c29.5,21.5,28.2,20.6,27.5,18.1-.7-2.3-18.9-58.4-19.5-60-.2-.7,11.6-9.9,26.3-20.5l26.8-19.4-33.2-.3-33.1-.2-9.6-29.8c-5.3-16.3-9.9-30.6-10.4-31.6-.5-1.4-3,5.1-8.8,23Z" fill="#fff"/>
    <path d="M1108.8,858c-5.3,16.2-9.9,30.5-10.3,31.7l-.6,2.3-33.1.2-33.2.3,26.6,19.3,26.6,19.3-1.3,4.2c-.7,2.3-4.1,12.7-7.5,23.2-9.3,28.5-11.2,34.7-10.8,35.1.2.2,11.6-7.8,25.3-17.8,13.8-9.9,25.7-18.5,26.6-19.1,1.2-.7,7.3,3.3,27.8,18.2,14.5,10.6,26.5,19,26.7,18.8s-.7-3.7-2.1-7.8c-2.9-8.9-16-49.5-16.9-52.6-.6-1.9,2.3-4.3,26-21.5l26.6-19.3-33.1-.3-33-.2-10.4-31.8-10.4-31.7-9.5,29.5Z" fill="#fff"/>
    <path d="M353.4,1062.4l-10,31.1-33.4.5-33.4.5,26.7,19.4c14.7,10.6,26.7,19.6,26.7,20,0,.3-4.5,14.3-9.9,31.1-5.5,16.8-9.8,30.7-9.6,30.8.2.2,11.8-7.9,25.7-18s25.9-18.7,26.5-19.1c.8-.5,10.8,6.1,27.5,18.2,14.4,10.5,26.3,18.9,26.6,18.7.3-.3-17-54.7-19.4-60.9-.2-.7,10.7-9.2,26.6-20.7l27-19.5-33.3-.3-33.3-.2-5.7-17.8c-9.2-28.3-14.4-44.3-14.8-44.6-.2-.2-4.9,13.6-10.5,30.8Z" fill="#fff"/>
    <path d="M915.6,1032c-.3.8-4.9,15.1-10.3,31.7l-9.7,30.3-33.4.2-33.3.3,26.9,19.4,26.9,19.3-4.9,15.2c-2.7,8.3-7.3,22.5-10.3,31.5-3,9.1-5.4,16.6-5.2,16.7.1.1,12.1-8.6,26.7-19.2s27-19.2,27.6-19c.6.3,12.6,8.8,26.7,19s25.8,18.6,26.1,18.6.4-.6.1-1.3c-9.2-27.7-19.5-60.9-19.1-61.5.3-.5,12.3-9.4,26.8-19.8l26.2-18.9-33.4-.5-33.4-.5-10.2-31.5c-5.6-17.3-10.5-30.8-10.8-30Z" fill="#fff"/>
    <path d="M629.5,1137l-10,31-33.3.2-33.4.3,26.2,18.9c14.4,10.4,26.4,19.4,26.6,20.1.3.7-2.4,10.2-6,21.1-3.5,10.9-8,24.6-9.9,30.4s-3.3,10.7-3.1,10.9,12.1-8.3,26.6-18.8,26.5-19.1,26.8-19.1,12.3,8.6,26.8,19.1,26.4,19,26.6,18.8-1.2-5.1-3.1-10.9-6.4-19.5-9.9-30.4c-3.6-10.9-6.3-20.4-6-21.1.2-.7,12.2-9.7,26.5-20.1l26.1-18.9-33.2-.3-33.3-.2-10-31c-5.4-17.1-10.2-31-10.5-31s-5.1,13.9-10.5,31Z" fill="#fff"/>
  </g>
  <g>
    <path id="path12427-9-3-9" d="M725.7,635.49c0,47.35-38.39,85.74-85.74,85.74s-85.74-38.39-85.74-85.74,38.39-85.74,85.74-85.74,85.74,38.39,85.74,85.74Z" stroke="#fff" stroke-miterlimit="1.66" stroke-width="10"/>
    <path id="path12427-9-3-9-8-5" d="M691.4,635.49c0,28.41-23.03,51.44-51.44,51.44s-51.44-23.03-51.44-51.44,23.03-51.44,51.44-51.44,51.44,23.03,51.44,51.44Z" stroke="#fff" stroke-miterlimit="10" stroke-width="10"/>
    <path id="path12427-9-3-9-8-2-3" d="M664.99,635.49c0,13.82-11.21,25.03-25.03,25.03s-25.03-11.21-25.03-25.03,11.21-25.03,25.03-25.03,25.03,11.21,25.03,25.03Z" fill="#fff"/>
    <path id="path13189-0" d="M639.97,535.5v200" stroke="#fff" stroke-linecap="round" stroke-width="5"/>
    <path id="path45" d="M740,635.51h-200" stroke="#fff" stroke-linecap="round" stroke-width="5"/>
  </g>
</svg>